# Blender v2.93.5 OBJ File: 'untitled.blend'
# www.blender.org
mtllib windshield.mtl
o Grid
v -0.600000 0.000000 -0.000000
v -0.400000 0.000000 -0.000000
v -0.200000 0.000000 -0.000000
v 0.000000 0.000000 -0.000000
v 0.200000 0.000000 -0.000000
v 0.400000 0.000000 -0.000000
v 0.600000 0.000000 -0.000000
v -0.600000 0.200000 0.000000
v -0.400000 0.200000 0.000000
v -0.200000 0.200000 0.000000
v 0.000000 0.200000 0.000000
v 0.200000 0.200000 0.000000
v 0.400000 0.200000 0.000000
v 0.600000 0.200000 0.000000
v -0.800000 0.400000 0.000000
v -0.600000 0.400000 0.000000
v -0.400000 0.400000 0.000000
v -0.200000 0.400000 0.000000
v 0.000000 0.400000 0.000000
v 0.200000 0.400000 0.000000
v 0.400000 0.400000 0.000000
v 0.600000 0.400000 0.000000
v 0.800000 0.400000 0.000000
v -0.800000 0.600000 0.000000
v -0.600000 0.600000 0.000000
v -0.400000 0.600000 0.000000
v -0.200000 0.600000 0.000000
v 0.000000 0.600000 0.000000
v 0.200000 0.600000 0.000000
v 0.400000 0.600000 0.000000
v 0.600000 0.600000 0.000000
v 0.800000 0.600000 0.000000
v -0.800000 0.800000 0.000000
v -0.600000 0.800000 0.000000
v -0.400000 0.800000 0.000000
v -0.200000 0.800000 0.000000
v 0.000000 0.800000 0.000000
v 0.200000 0.800000 0.000000
v 0.400000 0.800000 0.000000
v 0.600000 0.800000 0.000000
v 0.800000 0.800000 0.000000
v -0.600000 1.000000 0.000000
v -0.400000 1.000000 0.000000
v -0.200000 1.000000 0.000000
v 0.000000 1.000000 0.000000
v 0.200000 1.000000 0.000000
v 0.400000 1.000000 0.000000
v 0.600000 1.000000 0.000000
v 0.735867 0.200000 0.000000
v -0.743779 0.200000 0.000000
vt 0.300000 0.400000
vt 0.200000 0.500000
vt 0.200000 0.400000
vt 0.400000 0.400000
vt 0.300000 0.500000
vt 0.500000 0.400000
vt 0.400000 0.500000
vt 0.600000 0.400000
vt 0.500000 0.500000
vt 0.700000 0.400000
vt 0.600000 0.500000
vt 0.800000 0.400000
vt 0.700000 0.500000
vt 0.867933 0.500000
vt 0.800000 0.500000
vt 0.200000 0.600000
vt 0.300000 0.600000
vt 0.400000 0.600000
vt 0.500000 0.600000
vt 0.600000 0.600000
vt 0.700000 0.600000
vt 0.800000 0.600000
vt 0.100000 0.700000
vt 0.100000 0.600000
vt 0.200000 0.700000
vt 0.300000 0.700000
vt 0.400000 0.700000
vt 0.500000 0.700000
vt 0.600000 0.700000
vt 0.700000 0.700000
vt 0.900000 0.600000
vt 0.800000 0.700000
vt 0.100000 0.800000
vt 0.200000 0.800000
vt 0.300000 0.800000
vt 0.400000 0.800000
vt 0.500000 0.800000
vt 0.600000 0.800000
vt 0.700000 0.800000
vt 0.900000 0.700000
vt 0.800000 0.800000
vt 0.200000 0.900000
vt 0.300000 0.900000
vt 0.400000 0.900000
vt 0.500000 0.900000
vt 0.600000 0.900000
vt 0.700000 0.900000
vt 0.900000 0.800000
vt 0.800000 0.900000
vt 0.128110 0.500000
vn 0.0000 -0.0000 1.0000
usemtl None
s off
f 2/1/1 8/2/1 1/3/1
f 3/4/1 9/5/1 2/1/1
f 4/6/1 10/7/1 3/4/1
f 5/8/1 11/9/1 4/6/1
f 6/10/1 12/11/1 5/8/1
f 7/12/1 13/13/1 6/10/1
f 7/12/1 49/14/1 14/15/1
f 9/5/1 16/16/1 8/2/1
f 10/7/1 17/17/1 9/5/1
f 11/9/1 18/18/1 10/7/1
f 12/11/1 19/19/1 11/9/1
f 13/13/1 20/20/1 12/11/1
f 14/15/1 21/21/1 13/13/1
f 49/14/1 22/22/1 14/15/1
f 16/16/1 24/23/1 15/24/1
f 17/17/1 25/25/1 16/16/1
f 18/18/1 26/26/1 17/17/1
f 19/19/1 27/27/1 18/18/1
f 20/20/1 28/28/1 19/19/1
f 21/21/1 29/29/1 20/20/1
f 22/22/1 30/30/1 21/21/1
f 23/31/1 31/32/1 22/22/1
f 25/25/1 33/33/1 24/23/1
f 26/26/1 34/34/1 25/25/1
f 27/27/1 35/35/1 26/26/1
f 28/28/1 36/36/1 27/27/1
f 29/29/1 37/37/1 28/28/1
f 30/30/1 38/38/1 29/29/1
f 31/32/1 39/39/1 30/30/1
f 32/40/1 40/41/1 31/32/1
f 35/35/1 42/42/1 34/34/1
f 36/36/1 43/43/1 35/35/1
f 37/37/1 44/44/1 36/36/1
f 38/38/1 45/45/1 37/37/1
f 39/39/1 46/46/1 38/38/1
f 40/41/1 47/47/1 39/39/1
f 40/41/1 41/48/1 48/49/1
f 42/42/1 33/33/1 34/34/1
f 50/50/1 16/16/1 15/24/1
f 50/50/1 1/3/1 8/2/1
f 2/1/1 9/5/1 8/2/1
f 3/4/1 10/7/1 9/5/1
f 4/6/1 11/9/1 10/7/1
f 5/8/1 12/11/1 11/9/1
f 6/10/1 13/13/1 12/11/1
f 7/12/1 14/15/1 13/13/1
f 9/5/1 17/17/1 16/16/1
f 10/7/1 18/18/1 17/17/1
f 11/9/1 19/19/1 18/18/1
f 12/11/1 20/20/1 19/19/1
f 13/13/1 21/21/1 20/20/1
f 14/15/1 22/22/1 21/21/1
f 49/14/1 23/31/1 22/22/1
f 16/16/1 25/25/1 24/23/1
f 17/17/1 26/26/1 25/25/1
f 18/18/1 27/27/1 26/26/1
f 19/19/1 28/28/1 27/27/1
f 20/20/1 29/29/1 28/28/1
f 21/21/1 30/30/1 29/29/1
f 22/22/1 31/32/1 30/30/1
f 23/31/1 32/40/1 31/32/1
f 25/25/1 34/34/1 33/33/1
f 26/26/1 35/35/1 34/34/1
f 27/27/1 36/36/1 35/35/1
f 28/28/1 37/37/1 36/36/1
f 29/29/1 38/38/1 37/37/1
f 30/30/1 39/39/1 38/38/1
f 31/32/1 40/41/1 39/39/1
f 32/40/1 41/48/1 40/41/1
f 35/35/1 43/43/1 42/42/1
f 36/36/1 44/44/1 43/43/1
f 37/37/1 45/45/1 44/44/1
f 38/38/1 46/46/1 45/45/1
f 39/39/1 47/47/1 46/46/1
f 40/41/1 48/49/1 47/47/1
f 50/50/1 8/2/1 16/16/1
