# Blender v2.93.5 OBJ File: 'AA_Pinetree_01.blend'
# www.blender.org
mtllib tree3.mtl
o Pinetree_01_Cone.001
v 0.000000 6.137995 -0.666350
v 0.471180 5.958579 -0.471180
v 0.666350 6.137995 0.000000
v 0.471180 5.958579 0.471180
v -0.000000 6.137995 0.666350
v -0.471181 5.958579 0.471180
v -0.666350 6.137995 -0.000000
v -0.471181 5.958579 -0.471180
v 0.000000 8.137995 0.000000
v -0.023788 6.079211 -1.155697
v 0.883397 5.842330 -0.937060
v 1.000000 6.137995 0.000000
v 0.708296 5.863271 0.952007
v 0.001189 6.042687 1.244900
v -1.011839 5.972142 0.647974
v -1.304732 6.151559 -0.059133
v -0.907186 6.016043 -0.632851
v 0.000000 5.064418 -1.021136
v 0.722052 5.256859 -0.722052
v 1.021136 5.064418 0.000000
v 0.722052 5.256859 0.722052
v -0.000000 5.064418 1.021136
v -0.722052 5.256859 0.722052
v -1.021136 5.064418 -0.000000
v -0.722052 5.256859 -0.722052
v 0.056725 4.954310 -1.475713
v 1.075423 5.058323 -1.134046
v 1.415168 4.975990 -0.054803
v 0.957163 5.256859 0.957163
v -0.000000 5.064418 1.353632
v -1.254076 5.297701 1.251519
v -1.650546 5.105259 0.294356
v -0.957163 5.256859 -0.957162
v 0.000000 4.587661 -1.232840
v 0.871750 4.293650 -0.871749
v 1.232840 4.587661 0.000000
v 0.871750 4.293650 0.871749
v -0.000000 4.587661 1.232840
v -0.871750 4.293650 0.871749
v -1.232840 4.587661 -0.000000
v -0.871750 4.293650 -0.871749
v 0.121213 4.394921 -1.821030
v 1.242408 4.293650 -1.242408
v 1.757031 4.587661 0.000000
v 1.294654 4.287890 1.466183
v -0.348504 4.353364 2.114394
v -1.643159 4.065113 1.375997
v -1.757030 4.587661 -0.000000
v -1.121195 4.100910 -1.306408
v -0.000000 3.439465 -1.366064
v 0.965953 3.723895 -0.965953
v 1.366064 3.439465 0.000000
v 0.965953 3.723895 0.965953
v -0.000000 3.439465 1.366064
v -0.965953 3.723895 0.965953
v -1.366064 3.439465 -0.000000
v -0.965953 3.723895 -0.965953
v -0.432302 2.994640 -2.253451
v 1.411195 3.723895 -1.411195
v 2.151802 3.448157 0.213700
v 1.567266 3.732587 1.624894
v -0.000000 3.439465 1.995730
v -1.411195 3.723895 1.411194
v -1.995731 3.439465 -0.000000
v -1.843497 3.279070 -1.668915
v -0.000000 2.604537 -1.632453
v 1.154319 2.210068 -1.154318
v 1.632454 2.604537 0.000000
v 1.154319 2.210068 1.154318
v -0.000000 2.604537 1.632453
v -1.154319 2.210068 1.154319
v -1.632453 2.604537 -0.000000
v -1.154319 2.210068 -1.154318
v -0.000000 2.604537 -2.223246
v 1.572073 2.210068 -1.572072
v 2.223247 2.604537 0.000000
v 1.572073 2.210068 1.572072
v -0.000000 2.604537 2.223246
v -1.572073 2.210068 1.572072
v -2.223246 2.604537 -0.000000
v -1.572073 2.210068 -1.572072
v -0.000000 0.933357 -0.458923
v 0.324509 1.229515 -0.324507
v 0.458924 0.933357 0.000000
v 0.324508 1.229515 0.324507
v -0.000001 0.933357 0.458923
v -0.324508 1.229515 0.324508
v -0.458923 0.933357 0.000000
v -0.324508 1.229515 -0.324507
v -0.000000 0.933357 -2.623982
v 1.995255 1.100356 -1.871311
v 2.763802 0.804197 -0.015876
v 1.855436 1.229515 1.855435
v -0.000001 0.933357 2.623982
v -1.855437 1.229515 1.855435
v -2.623982 0.933357 -0.000000
v -1.855437 1.229515 -1.855435
v -0.000000 0.012376 -0.712535
v 0.503840 0.012376 -0.503837
v 0.712536 0.012376 0.000000
v 0.503840 0.012376 0.503837
v -0.000001 0.012376 0.712535
v -0.503839 0.012376 0.503838
v -0.712535 0.012376 0.000000
v -0.503839 0.012376 -0.503838
vt 0.250000 0.490000
vt 0.250000 0.250000
vt 0.419706 0.419706
vt 0.490000 0.250000
vt 0.419706 0.080294
vt 0.250000 0.010000
vt 0.080294 0.080294
vt 0.010000 0.250000
vt 0.080294 0.419706
vt 0.636917 0.136917
vt 0.750000 0.090076
vt 0.750000 0.090076
vt 0.863083 0.363083
vt 0.750000 0.490000
vt 0.919706 0.419706
vt 0.990000 0.250000
vt 0.909924 0.250000
vt 0.863083 0.136917
vt 0.919706 0.080294
vt 0.750000 0.010000
vt 0.580294 0.080294
vt 0.590076 0.250000
vt 0.510000 0.250000
vt 0.580294 0.419706
vt 0.636917 0.363083
vt 0.750000 0.409924
vt 0.664694 0.164694
vt 0.629359 0.250000
vt 0.664694 0.164694
vt 0.909924 0.250000
vt 0.750000 0.409924
vt 0.636917 0.363083
vt 0.590076 0.250000
vt 0.636917 0.136917
vt 0.863083 0.136917
vt 0.863083 0.363083
vt 0.750000 0.370641
vt 0.835306 0.335306
vt 0.870641 0.250000
vt 0.835306 0.164694
vt 0.750000 0.129359
vt 0.629359 0.250000
vt 0.664694 0.335306
vt 0.690144 0.309856
vt 0.665351 0.250000
vt 0.665351 0.250000
vt 0.835306 0.164694
vt 0.835306 0.335306
vt 0.664694 0.335306
vt 0.750000 0.129359
vt 0.870641 0.250000
vt 0.750000 0.370641
vt 0.809856 0.309856
vt 0.834649 0.250000
vt 0.809856 0.190144
vt 0.750000 0.165351
vt 0.690144 0.190144
vt 0.750000 0.334649
vt 0.692058 0.250000
vt 0.709029 0.290971
vt 0.692058 0.250000
vt 0.750000 0.165351
vt 0.834649 0.250000
vt 0.809856 0.309856
vt 0.750000 0.334649
vt 0.690144 0.309856
vt 0.690144 0.190144
vt 0.809856 0.190144
vt 0.750000 0.307942
vt 0.790971 0.290971
vt 0.807942 0.250000
vt 0.790971 0.209029
vt 0.750000 0.192058
vt 0.709029 0.209029
vt 0.709029 0.290971
vt 0.719916 0.280084
vt 0.750000 0.292545
vt 0.719916 0.280084
vt 0.709029 0.209029
vt 0.750000 0.192058
vt 0.790971 0.209029
vt 0.807942 0.250000
vt 0.790971 0.290971
vt 0.750000 0.307942
vt 0.750000 0.292545
vt 0.780084 0.280084
vt 0.792545 0.250000
vt 0.780084 0.219916
vt 0.750000 0.207455
vt 0.719916 0.219916
vt 0.707455 0.250000
vt 0.707455 0.250000
vt 0.719916 0.219916
vt 0.750000 0.207455
vt 0.780084 0.219916
vt 0.792545 0.250000
vt 0.780084 0.280084
vt 0.757008 0.257008
vt 0.759911 0.250000
vt 0.757008 0.242992
vt 0.750000 0.240089
vt 0.742992 0.242992
vt 0.740089 0.250000
vt 0.742992 0.257008
vt 0.750000 0.259911
vt 0.742992 0.257008
vt 0.740089 0.250000
vt 0.742992 0.242992
vt 0.750000 0.240089
vt 0.757008 0.242992
vt 0.759911 0.250000
vt 0.757008 0.257008
vt 0.750000 0.259911
vn 0.3199 0.4610 -0.8278
vn 0.8672 0.4336 -0.2447
vn 0.8296 0.4148 0.3739
vn 0.4369 0.4596 0.7732
vn -0.4767 0.4488 0.7559
vn -0.7578 0.4847 0.4369
vn -0.6750 0.4605 -0.5765
vn -0.4818 0.4332 -0.7617
vn -0.4847 0.4716 0.7367
vn -0.2559 -0.9666 0.0147
vn 0.0000 -0.9345 0.3559
vn 0.1089 -0.9635 -0.2447
vn -0.3026 -0.9406 -0.1543
vn 0.0087 -0.9947 0.1028
vn 0.0023 -0.9691 -0.2468
vn -0.2220 -0.9383 0.2653
vn 0.3872 -0.9175 0.0914
vn -0.6602 0.6824 0.3138
vn 0.7460 0.4580 0.4834
vn 0.4876 0.5086 -0.7096
vn -0.1874 0.6437 -0.7420
vn -0.5924 0.8012 0.0843
vn 0.1800 0.6413 0.7459
vn 0.7468 0.6384 -0.1864
vn -0.7284 0.5999 -0.3309
vn 0.0437 -0.8848 0.4639
vn -0.2370 -0.9587 -0.1573
vn -0.1821 -0.9663 0.1821
vn 0.2575 -0.9663 0.0000
vn -0.1741 -0.9797 -0.0994
vn 0.0486 -0.9700 0.2384
vn 0.1821 -0.9663 -0.1821
vn -0.1792 -0.9611 0.2104
vn -0.7354 0.4886 -0.4694
vn 0.1350 0.6525 0.7457
vn 0.8160 0.5450 -0.1928
vn -0.4709 0.7268 -0.5000
vn -0.0021 0.8386 0.5447
vn 0.5437 0.8393 0.0015
vn 0.3593 0.7417 -0.5664
vn -0.2149 0.4987 -0.8397
vn -0.0594 -0.9965 -0.0594
vn -0.0000 -0.9476 0.3196
vn 0.1845 -0.9727 -0.1407
vn -0.1605 -0.9363 -0.3123
vn 0.2484 -0.9669 -0.0581
vn 0.0000 -0.9476 -0.3196
vn 0.0618 -0.9251 0.3747
vn 0.3523 -0.8654 0.3562
vn -0.6318 0.6486 -0.4244
vn -0.4694 0.4886 0.7354
vn 0.6418 0.6058 0.4702
vn 0.1935 0.4915 -0.8491
vn -0.1506 0.6959 -0.7022
vn -0.6595 0.7415 0.1237
vn -0.0071 0.7988 0.6016
vn 0.6357 0.7549 -0.1616
vn 0.1997 -0.9593 0.1997
vn 0.0639 -0.9787 -0.1952
vn -0.1392 -0.9803 0.1399
vn 0.2825 -0.9593 0.0000
vn -0.1397 -0.9803 -0.1397
vn 0.0000 -0.9803 0.1976
vn 0.3691 -0.9213 0.1222
vn -0.0635 -0.8794 0.4718
vn -0.1956 0.6591 -0.7262
vn -0.4244 0.6486 0.6318
vn 0.6318 0.6486 0.4244
vn 0.4244 0.6486 -0.6318
vn -0.2301 0.4397 -0.8681
vn -0.8681 0.4397 0.2301
vn 0.2301 0.4397 0.8681
vn 0.8681 0.4397 -0.2301
vn -0.2287 -0.9463 -0.2287
vn -0.0000 -0.9699 0.2434
vn 0.2287 -0.9463 -0.2287
vn -0.3234 -0.9463 0.0000
vn 0.1721 -0.9699 0.1721
vn 0.0000 -0.9463 -0.3234
vn -0.1721 -0.9699 0.1721
vn 0.3234 -0.9463 0.0000
vn -0.7262 0.6591 0.1956
vn 0.1956 0.6591 0.7262
vn 0.7189 0.6683 -0.1911
vn -0.7597 0.4507 -0.4687
vn -0.4687 0.4507 0.7597
vn 0.7493 0.4667 0.4699
vn 0.4687 0.4507 -0.7597
vn 0.0368 -0.9918 0.1225
vn -0.0564 -0.9893 -0.1346
vn -0.4767 -0.7386 0.4767
vn 0.1576 -0.9875 0.0000
vn -0.1115 -0.9875 -0.1115
vn -0.0000 -0.7386 0.6741
vn 0.4767 -0.7386 -0.4767
vn -0.6741 -0.7386 0.0000
vn 0.0780 0.7208 0.6887
vn -0.3989 -0.9079 0.1285
vn 0.0624 -0.9540 0.2932
vn 0.0000 -0.9345 -0.3559
vn -0.3588 -0.9334 -0.0081
vn 0.4053 -0.9019 -0.1494
vn -0.1243 -0.9433 -0.3077
vn -0.0396 -0.9783 0.2036
vn -0.0523 -0.9771 -0.2063
vn -0.5437 0.8393 0.0015
vn 0.7538 0.6361 0.1646
vn 0.1781 0.6582 -0.7315
vn -0.4852 0.4776 -0.7324
vn -0.5587 0.6713 0.4870
vn 0.4847 0.4716 0.7367
vn 0.7239 0.4894 -0.4862
vn -0.5258 0.6994 -0.4841
vn 0.0194 -0.9712 0.2377
vn -0.4289 -0.9009 0.0663
vn -0.1913 -0.9647 0.1812
vn 0.1394 -0.9804 -0.1394
vn -0.2575 -0.9663 -0.0000
vn 0.0858 -0.9830 0.1621
vn -0.1584 -0.9659 -0.2048
vn -0.6624 0.7376 -0.1313
vn 0.2608 0.7692 0.5834
vn 0.5006 0.7727 -0.3902
vn -0.8705 0.4255 -0.2472
vn -0.4729 0.6758 0.5654
vn 0.6675 0.6597 0.3454
vn 0.1928 0.5450 -0.8160
vn -0.4145 0.6660 -0.6202
vn -0.3903 -0.8957 0.2131
vn 0.1628 -0.9731 0.1628
vn -0.2512 -0.9530 0.1695
vn 0.3568 -0.9282 -0.1056
vn 0.0425 -0.9328 -0.3578
vn 0.3814 -0.9061 0.1829
vn -0.8681 0.4397 -0.2301
vn -0.1237 0.7415 0.6595
vn 0.5760 0.8140 0.0745
vn 0.4388 0.8010 -0.4072
vn -0.4711 0.5629 -0.6791
vn -0.7354 0.4886 0.4694
vn 0.4694 0.4886 0.7354
vn 0.7281 0.4991 -0.4699
vn 0.1953 -0.9116 0.3618
vn -0.1997 -0.9593 -0.1997
vn -0.0598 -0.9640 0.2591
vn 0.1533 -0.9800 -0.1269
vn -0.2825 -0.9593 -0.0000
vn 0.0000 -0.9593 -0.2825
vn 0.0345 -0.8634 0.5033
vn -0.4687 0.4507 -0.7597
vn -0.2301 0.4397 0.8681
vn 0.8681 0.4397 0.2301
vn 0.2301 0.4397 -0.8681
vn -0.4244 0.6486 -0.6318
vn -0.6318 0.6486 0.4244
vn 0.4244 0.6486 0.6318
vn 0.6318 0.6486 -0.4244
vn -0.2434 -0.9699 0.0000
vn 0.2287 -0.9463 0.2287
vn 0.0000 -0.9699 -0.2434
vn -0.1721 -0.9699 -0.1721
vn 0.0000 -0.9463 0.3234
vn 0.1721 -0.9699 -0.1721
vn -0.7597 0.4507 0.4687
vn 0.4687 0.4507 0.7597
vn 0.7454 0.4725 -0.4702
vn -0.7262 0.6591 -0.1956
vn -0.1956 0.6591 0.7262
vn 0.7232 0.6608 0.2009
vn 0.2228 0.6425 -0.7332
vn 0.6741 -0.7386 -0.0000
vn -0.4902 -0.7353 -0.4680
vn -0.0535 -0.9790 0.1965
vn 0.1115 -0.9875 0.1115
vn 0.0000 -0.9875 -0.1576
vn -0.1115 -0.9875 0.1115
vn -0.8954 0.2466 -0.3709
vn 0.0000 -1.0000 0.0000
vn -0.3709 0.2466 0.8954
vn 0.8954 0.2466 0.3709
vn 0.3709 0.2466 -0.8954
vn -0.2357 0.1756 -0.9558
vn -0.9558 0.1756 0.2357
vn 0.2357 0.1756 0.9558
vn 0.9558 0.1756 -0.2357
vn -0.9558 0.1756 -0.2357
vn -0.2357 0.1756 0.9558
vn 0.9558 0.1756 0.2357
vn 0.2357 0.1756 -0.9558
vn -0.3709 0.2466 -0.8954
vn -0.8954 0.2466 0.3709
vn 0.3709 0.2466 0.8954
vn 0.8954 0.2466 -0.3709
usemtl Leaves
s off
f 10/1/1 9/2/1 11/3/1
f 11/3/2 9/2/2 12/4/2
f 12/4/3 9/2/3 13/5/3
f 13/5/4 9/2/4 14/6/4
f 14/6/5 9/2/5 15/7/5
f 15/7/6 9/2/6 16/8/6
f 16/8/7 9/2/7 17/9/7
f 17/9/8 9/2/8 10/1/8
f 6/10/9 30/11/9 5/12/9
f 2/13/10 10/14/10 11/15/10
f 2/13/11 12/16/11 3/17/11
f 4/18/12 12/16/12 13/19/12
f 5/12/13 13/19/13 14/20/13
f 6/10/14 14/20/14 15/21/14
f 7/22/15 15/21/15 16/23/15
f 7/22/16 17/24/16 8/25/16
f 8/25/17 10/14/17 1/26/17
f 23/27/18 48/28/18 47/29/18
f 4/18/19 28/30/19 3/17/19
f 2/13/20 26/31/20 1/26/20
f 8/25/21 26/31/21 33/32/21
f 6/10/22 32/33/22 31/34/22
f 4/18/23 30/11/23 29/35/23
f 2/13/24 28/30/24 27/36/24
f 7/22/25 33/32/25 32/33/25
f 18/37/26 27/36/26 19/38/26
f 19/38/27 28/30/27 20/39/27
f 20/39/28 29/35/28 21/40/28
f 21/40/29 30/11/29 22/41/29
f 23/27/30 30/11/30 31/34/30
f 23/27/31 32/33/31 24/42/31
f 24/42/32 33/32/32 25/43/32
f 18/37/33 33/32/33 26/31/33
f 41/44/34 64/45/34 40/46/34
f 22/41/35 45/47/35 21/40/35
f 20/39/36 43/48/36 19/38/36
f 24/42/37 49/49/37 48/28/37
f 23/27/38 46/50/38 22/41/38
f 21/40/39 44/51/39 20/39/39
f 18/37/40 43/48/40 42/52/40
f 18/37/41 49/49/41 25/43/41
f 35/53/42 42/52/42 43/48/42
f 35/53/43 44/51/43 36/54/43
f 37/55/44 44/51/44 45/47/44
f 38/56/45 45/47/45 46/50/45
f 39/57/46 46/50/46 47/29/46
f 39/57/47 48/28/47 40/46/47
f 41/44/48 48/28/48 49/49/48
f 34/58/49 49/49/49 42/52/49
f 56/59/50 81/60/50 80/61/50
f 39/57/51 62/62/51 38/56/51
f 37/55/52 60/63/52 36/54/52
f 34/58/53 59/64/53 58/65/53
f 41/44/54 58/65/54 65/66/54
f 39/57/55 64/45/55 63/67/55
f 37/55/56 62/62/56 61/68/56
f 35/53/57 60/63/57 59/64/57
f 50/69/58 59/64/58 51/70/58
f 52/71/59 59/64/59 60/63/59
f 53/72/60 60/63/60 61/68/60
f 53/72/61 62/62/61 54/73/61
f 55/74/62 62/62/62 63/67/62
f 56/59/63 63/67/63 64/45/63
f 57/75/64 64/45/64 65/66/64
f 57/75/65 58/65/65 50/69/65
f 73/76/66 90/77/66 97/78/66
f 54/73/67 79/79/67 78/80/67
f 52/71/68 77/81/68 76/82/68
f 50/69/69 75/83/69 74/84/69
f 50/69/70 81/60/70 57/75/70
f 56/59/71 79/79/71 55/74/71
f 54/73/72 77/81/72 53/72/72
f 52/71/73 75/83/73 51/70/73
f 66/85/74 75/83/74 67/86/74
f 68/87/75 75/83/75 76/82/75
f 68/87/76 77/81/76 69/88/76
f 69/88/77 78/80/77 70/89/77
f 71/90/78 78/80/78 79/79/78
f 71/90/79 80/61/79 72/91/79
f 73/76/80 80/61/80 81/60/80
f 73/76/81 74/84/81 66/85/81
f 71/90/82 96/92/82 95/93/82
f 69/88/83 94/94/83 93/95/83
f 67/86/84 92/96/84 91/97/84
f 73/76/85 96/92/85 72/91/85
f 71/90/86 94/94/86 70/89/86
f 69/88/87 92/96/87 68/87/87
f 67/86/88 90/77/88 66/85/88
f 83/98/89 90/77/89 91/97/89
f 84/99/90 91/97/90 92/96/90
f 84/99/91 93/95/91 85/100/91
f 86/101/92 93/95/92 94/94/92
f 87/102/93 94/94/93 95/93/93
f 87/102/94 96/92/94 88/103/94
f 88/103/95 97/78/95 89/104/95
f 89/104/96 90/77/96 82/105/96
f 6/10/97 31/34/97 30/11/97
f 2/13/98 1/26/98 10/14/98
f 2/13/99 11/15/99 12/16/99
f 4/18/100 3/17/100 12/16/100
f 5/12/101 4/18/101 13/19/101
f 6/10/102 5/12/102 14/20/102
f 7/22/103 6/10/103 15/21/103
f 7/22/104 16/23/104 17/24/104
f 8/25/105 17/24/105 10/14/105
f 23/27/106 24/42/106 48/28/106
f 4/18/107 29/35/107 28/30/107
f 2/13/108 27/36/108 26/31/108
f 8/25/109 1/26/109 26/31/109
f 6/10/110 7/22/110 32/33/110
f 4/18/111 5/12/111 30/11/111
f 2/13/112 3/17/112 28/30/112
f 7/22/113 8/25/113 33/32/113
f 18/37/114 26/31/114 27/36/114
f 19/38/115 27/36/115 28/30/115
f 20/39/116 28/30/116 29/35/116
f 21/40/117 29/35/117 30/11/117
f 23/27/118 22/41/118 30/11/118
f 23/27/119 31/34/119 32/33/119
f 24/42/120 32/33/120 33/32/120
f 18/37/28 25/43/28 33/32/28
f 41/44/121 65/66/121 64/45/121
f 22/41/122 46/50/122 45/47/122
f 20/39/123 44/51/123 43/48/123
f 24/42/124 25/43/124 49/49/124
f 23/27/125 47/29/125 46/50/125
f 21/40/126 45/47/126 44/51/126
f 18/37/127 19/38/127 43/48/127
f 18/37/128 42/52/128 49/49/128
f 35/53/129 34/58/129 42/52/129
f 35/53/130 43/48/130 44/51/130
f 37/55/47 36/54/47 44/51/47
f 38/56/131 37/55/131 45/47/131
f 39/57/132 38/56/132 46/50/132
f 39/57/133 47/29/133 48/28/133
f 41/44/43 40/46/43 48/28/43
f 34/58/134 41/44/134 49/49/134
f 56/59/135 57/75/135 81/60/135
f 39/57/136 63/67/136 62/62/136
f 37/55/137 61/68/137 60/63/137
f 34/58/138 35/53/138 59/64/138
f 41/44/139 34/58/139 58/65/139
f 39/57/140 40/46/140 64/45/140
f 37/55/141 38/56/141 62/62/141
f 35/53/142 36/54/142 60/63/142
f 50/69/143 58/65/143 59/64/143
f 52/71/144 51/70/144 59/64/144
f 53/72/145 52/71/145 60/63/145
f 53/72/146 61/68/146 62/62/146
f 55/74/147 54/73/147 62/62/147
f 56/59/58 55/74/58 63/67/58
f 57/75/148 56/59/148 64/45/148
f 57/75/149 65/66/149 58/65/149
f 73/76/150 66/85/150 90/77/150
f 54/73/151 55/74/151 79/79/151
f 52/71/152 53/72/152 77/81/152
f 50/69/153 51/70/153 75/83/153
f 50/69/154 74/84/154 81/60/154
f 56/59/155 80/61/155 79/79/155
f 54/73/156 78/80/156 77/81/156
f 52/71/157 76/82/157 75/83/157
f 66/85/158 74/84/158 75/83/158
f 68/87/159 67/86/159 75/83/159
f 68/87/160 76/82/160 77/81/160
f 69/88/80 77/81/80 78/80/80
f 71/90/81 70/89/81 78/80/81
f 71/90/161 79/79/161 80/61/161
f 73/76/162 72/91/162 80/61/162
f 73/76/163 81/60/163 74/84/163
f 71/90/164 72/91/164 96/92/164
f 69/88/165 70/89/165 94/94/165
f 67/86/166 68/87/166 92/96/166
f 73/76/167 97/78/167 96/92/167
f 71/90/168 95/93/168 94/94/168
f 69/88/169 93/95/169 92/96/169
f 67/86/170 91/97/170 90/77/170
f 83/98/171 82/105/171 90/77/171
f 84/99/172 83/98/172 91/97/172
f 84/99/173 92/96/173 93/95/173
f 86/101/95 85/100/95 93/95/95
f 87/102/96 86/101/96 94/94/96
f 87/102/174 95/93/174 96/92/174
f 88/103/175 96/92/175 97/78/175
f 89/104/176 97/78/176 90/77/176
usemtl Bark
f 88/103/177 105/106/177 104/107/177
f 103/108/178 104/107/178 105/106/178
f 86/101/179 103/108/179 102/109/179
f 84/99/180 101/110/180 100/111/180
f 82/105/181 99/112/181 98/113/181
f 82/105/182 105/106/182 89/104/182
f 88/103/183 103/108/183 87/102/183
f 86/101/184 101/110/184 85/100/184
f 84/99/185 99/112/185 83/98/185
f 88/103/186 89/104/186 105/106/186
f 105/106/178 98/113/178 101/110/178
f 98/113/178 99/112/178 101/110/178
f 99/112/178 100/111/178 101/110/178
f 101/110/178 102/109/178 105/106/178
f 102/109/178 103/108/178 105/106/178
f 86/101/187 87/102/187 103/108/187
f 84/99/188 85/100/188 101/110/188
f 82/105/189 83/98/189 99/112/189
f 82/105/190 98/113/190 105/106/190
f 88/103/191 104/107/191 103/108/191
f 86/101/192 102/109/192 101/110/192
f 84/99/193 100/111/193 99/112/193
