# Blender v2.93.5 OBJ File: 'windshield.blend'
# www.blender.org
mtllib windshield2.mtl
o Wind
v -1.000000 0.000000 -2.000000
v 1.000000 0.000000 -2.000000
v 1.000000 0.000000 -0.941755
v -1.000000 0.000000 -1.181329
v -0.931922 0.000000 -1.100006
v -0.854995 0.000000 -1.014287
v -0.791255 0.000000 -0.959338
v -0.709932 0.000000 -0.932963
v -0.485743 0.000000 -0.950547
v -0.219793 0.000000 -0.961536
v 0.076928 0.000000 -0.963734
v 0.309908 0.000000 -0.965932
v 0.595639 0.000000 -0.959338
v 0.808839 0.000000 -0.954942
vt 0.654954 0.482966
vt 0.797820 0.479669
vt 1.000000 1.000000
vt 0.000000 1.000000
vt 0.000000 0.590665
vt 0.257129 0.475273
vt 0.034039 0.550003
vt 0.072503 0.507143
vt 0.104372 0.479669
vt 0.145034 0.466482
vt 0.390103 0.480768
vt 0.538464 0.481867
vt 1.000000 0.470877
vt 0.904419 0.477471
vn 0.0000 1.0000 0.0000
usemtl Material
s off
f 12/1/1 13/2/1 2/3/1
f 1/4/1 4/5/1 9/6/1
f 4/5/1 5/7/1 9/6/1
f 5/7/1 6/8/1 9/6/1
f 6/8/1 7/9/1 8/10/1
f 9/6/1 6/8/1 8/10/1
f 10/11/1 11/12/1 1/4/1
f 11/12/1 12/1/1 2/3/1
f 1/4/1 11/12/1 2/3/1
f 9/6/1 10/11/1 1/4/1
f 3/13/1 2/3/1 14/14/1
f 14/14/1 2/3/1 13/2/1
